<svg xmlns="http://www.w3.org/2000/svg" width="681.669" height="813.968" viewBox="0 0 681.669 813.968">
  <path id="Polygon_11" data-name="Polygon 11" d="M93.739,12.522a7,7,0,0,1,12.522,0L194.935,189.87A7,7,0,0,1,188.674,200H11.326a7,7,0,0,1-6.261-10.13Z" transform="translate(51.764 306.734) rotate(-105)" fill="#e5707e"/>
  <path id="Polygon_19" data-name="Polygon 19" d="M93.739,12.522a7,7,0,0,1,12.522,0L194.935,189.87A7,7,0,0,1,188.674,200H11.326a7,7,0,0,1-6.261-10.13Z" transform="translate(331.115 540.763) rotate(60)" fill="#a3ddcb"/>
  <circle id="Ellipse_1" data-name="Ellipse 1" cx="150" cy="150" r="150" transform="translate(381.669)" fill="rgba(0,136,145,0.15)"/>
  <circle id="Ellipse_2" data-name="Ellipse 2" cx="150" cy="150" r="150" transform="translate(72.669 417)" fill="rgba(15,48,87,0.15)"/>
</svg>
