<svg xmlns="http://www.w3.org/2000/svg" width="1307" height="893.236" viewBox="0 0 1307 893.236">
  <rect id="Rectangle_2" data-name="Rectangle 2" width="1307" height="861" transform="translate(0 32.236)" fill="#da9ff9"/>
  <path id="Polygon_12" data-name="Polygon 12" d="M93.739,12.522a7,7,0,0,1,12.522,0L194.935,189.87A7,7,0,0,1,188.674,200H11.326a7,7,0,0,1-6.261-10.13Z" transform="translate(344.324 184.101) rotate(-67)" fill="#a3ddcb"/>
  <path id="Polygon_13" data-name="Polygon 13" d="M93.739,12.522a7,7,0,0,1,12.522,0L194.935,189.87A7,7,0,0,1,188.674,200H11.326a7,7,0,0,1-6.261-10.13Z" transform="translate(1011.356 467.638) rotate(113)" fill="#e5707e"/>
  <path id="Polygon_15" data-name="Polygon 15" d="M93.739,12.522a7,7,0,0,1,12.522,0L194.935,189.87A7,7,0,0,1,188.674,200H11.326a7,7,0,0,1-6.261-10.13Z" transform="translate(1032.669 494.344) rotate(-67)" fill="#e8e9a1"/>
  <path id="Polygon_16" data-name="Polygon 16" d="M93.739,12.522a7,7,0,0,1,12.522,0L194.935,189.87A7,7,0,0,1,188.674,200H11.326a7,7,0,0,1-6.261-10.13Z" transform="translate(959.878 110.219) rotate(113)" fill="#e6b566"/>
  <path id="Polygon_20" data-name="Polygon 20" d="M93.739,12.522a7,7,0,0,1,12.522,0L194.935,189.87A7,7,0,0,1,188.674,200H11.326a7,7,0,0,1-6.261-10.13Z" transform="matrix(-0.391, 0.921, -0.921, -0.391, 1191.501, 186.275)" fill="#a3ddcb"/>
  <path id="Polygon_21" data-name="Polygon 21" d="M93.739,12.522a7,7,0,0,1,12.522,0L194.935,189.87A7,7,0,0,1,188.674,200H11.326a7,7,0,0,1-6.261-10.13Z" transform="translate(24.152 239.22) rotate(-67)" fill="#e6b566"/>
  <path id="Polygon_22" data-name="Polygon 22" d="M93.739,12.522a7,7,0,0,1,12.522,0L194.935,189.87A7,7,0,0,1,188.674,200H11.326a7,7,0,0,1-6.261-10.13Z" transform="translate(1077.424 553.474) rotate(25)" fill="#e8e9a1"/>
  <path id="Polygon_24" data-name="Polygon 24" d="M93.739,12.522a7,7,0,0,1,12.522,0L194.935,189.87A7,7,0,0,1,188.674,200H11.326a7,7,0,0,1-6.261-10.13Z" transform="translate(252.446 531) rotate(60)" fill="#e5707e"/>
  <path id="Polygon_25" data-name="Polygon 25" d="M93.739,12.522a7,7,0,0,1,12.522,0L194.935,189.87A7,7,0,0,1,188.674,200H11.326a7,7,0,0,1-6.261-10.13Z" transform="translate(405.669 726.344) rotate(-67)" fill="#e8e9a1"/>
</svg>
